<?xml version="1.0" encoding="UTF-8" standalone="no"?>
<svg
   xmlns:dc="http://purl.org/dc/elements/1.1/"
   xmlns:cc="http://creativecommons.org/ns#"
   xmlns:rdf="http://www.w3.org/1999/02/22-rdf-syntax-ns#"
   xmlns:svg="http://www.w3.org/2000/svg"
   xmlns="http://www.w3.org/2000/svg"
   viewBox="0 0 934.65332 239.41333"
   height="239.41333"
   width="934.65332"
   xml:space="preserve"
   id="svg2"
   version="1.1"><metadata
     id="metadata8"><rdf:RDF><cc:Work
         rdf:about=""><dc:format>image/svg+xml</dc:format><dc:type
           rdf:resource="http://purl.org/dc/dcmitype/StillImage" /></cc:Work></rdf:RDF></metadata><defs
     id="defs6" /><g
     transform="matrix(1.3333333,0,0,-1.3333333,0,239.41333)"
     id="g10"><g
       transform="scale(0.1)"
       id="g12"><path
         id="path14"
         style="fill:#50abe4;fill-opacity:1;fill-rule:nonzero;stroke:none"
         d="m 3283.13,1459.12 h -294.59 l 0.48,-551.218 c 0,-161.093 -69.06,-291.402 -230.15,-291.402 -161.16,0 -230.85,130.309 -230.85,291.402 v 550.678 h -293.84 l -0.09,-550.678 c 0,-318.32 204.62,-576.3 522.99,-576.3 318.28,0 525.96,257.98 525.96,576.3 l 0.09,551.218" /><path
         id="path16"
         style="fill:#50abe4;fill-opacity:1;fill-rule:nonzero;stroke:none"
         d="M 5939.58,1794.98 V 360.031 h 293.15 V 1794.98 h -293.15" /><path
         id="path18"
         style="fill:#50abe4;fill-opacity:1;fill-rule:nonzero;stroke:none"
         d="m 6449.16,1742.07 v 51.55 h 228.46 v -51.55 h -83.56 v -227.21 h -61.3 v 227.21 h -83.6" /><path
         id="path20"
         style="fill:#50abe4;fill-opacity:1;fill-rule:nonzero;stroke:none"
         d="m 6795.89,1793.62 65.21,-191.67 h 0.78 l 61.66,191.67 h 86.33 v -278.76 h -57.39 v 197.56 h -0.8 l -68.31,-197.56 h -47.27 l -68.3,195.61 h -0.78 v -195.61 h -57.39 v 278.76 h 86.26" /><path
         id="path22"
         style="fill:#50abe4;fill-opacity:1;fill-rule:nonzero;stroke:none"
         d="m 1994.55,1471.1 c -252.69,58.32 -412.1,-192.72 -418.72,-206.18 -3.25,-6.6 -3.38,-10.46 -14.57,-10.17 -9.25,0.2 -10.3,10.17 -10.3,10.17 l -31.36,192.03 H 1256.99 V 360.98 h 294.37 v 593.235 c 0,48.485 130.54,280.905 383.46,221.075 127.92,-30.26 182.17,-84.53 182.17,-84.53 0,0 0,211.55 0,333.87 -47.33,24.67 -79.8,36.64 -122.44,46.47" /><path
         id="path24"
         style="fill:#50abe4;fill-opacity:1;fill-rule:nonzero;stroke:none"
         d="m 3967.94,1193.39 c 162.25,0 293.74,-131.52 293.74,-293.652 0,-162.269 -131.49,-293.789 -293.74,-293.789 -162.22,0 -293.67,131.52 -293.67,293.789 0,162.132 131.45,293.652 293.67,293.652 z M 3682.6,0 v 394.352 c 0.03,0 0.08,-0.043 0.1,-0.071 l 0.04,147.68 c 0,0 0.47,11.809 11.12,11.961 9.5,0.098 11.62,-6.192 13.93,-11.961 22.32,-55.539 145.07,-267.121 417.47,-200.75 243.85,68.687 422.71,292.609 422.71,558.527 0,320.402 -259.81,580.232 -580.27,580.232 -320.47,0 -580.26,-259.83 -580.26,-580.232 0,0 0,-793.199 0,-899.738 h 295.16" /><path
         id="path26"
         style="fill:#50abe4;fill-opacity:1;fill-rule:nonzero;stroke:none"
         d="m 5533.78,899.738 c 0,-162.269 -131.5,-293.789 -293.69,-293.789 -162.23,0 -293.75,131.52 -293.75,293.789 0,162.132 131.52,293.652 293.75,293.652 162.19,0 293.69,-131.52 293.69,-293.652 z m -8.36,-539.25 h 295.16 v 539.25 c 0,320.402 -259.76,580.232 -580.25,580.232 -320.5,0 -580.28,-259.83 -580.28,-580.232 0,-265.918 178.86,-489.84 422.71,-558.527 272.43,-66.371 395.13,145.211 417.47,200.75 2.32,5.769 4.41,12.059 13.94,11.961 10.64,-0.152 11.08,-11.961 11.08,-11.961" /><path
         id="path28"
         style="fill:#50abe4;fill-opacity:1;fill-rule:nonzero;stroke:none"
         d="M 414.789,1547.23 H 296.422 V 611.379 l 121.562,-3.109 c 249.297,0 409.86,22.679 409.86,470.92 0,429.84 -141.758,468.04 -413.055,468.04 z M 334.855,362.789 H 0 V 1795.59 h 359.285 c 435.063,0 765.035,-79.83 765.035,-716.4 0,-630.44 -349.523,-716.401 -789.465,-716.401" /></g></g></svg>