<?xml version="1.0" encoding="UTF-8" standalone="no"?>
<!-- Created with Inkscape (http://www.inkscape.org/) -->

<svg
   xmlns:dc="http://purl.org/dc/elements/1.1/"
   xmlns:cc="http://creativecommons.org/ns#"
   xmlns:rdf="http://www.w3.org/1999/02/22-rdf-syntax-ns#"
   xmlns:svg="http://www.w3.org/2000/svg"
   xmlns="http://www.w3.org/2000/svg"
   version="1.1"
   width="892.91339"
   height="278.1496"
   id="svg4202">
  <defs
     id="defs4204">
    <clipPath
       id="clipPath3901">
      <path
         d="m 0,0 595.276,0 0,283.465 L 0,283.465 0,0 z"
         id="path3903" />
    </clipPath>
  </defs>
  <metadata
     id="metadata4207">
    <rdf:RDF>
      <cc:Work
         rdf:about="">
        <dc:format>image/svg+xml</dc:format>
        <dc:type
           rdf:resource="http://purl.org/dc/dcmitype/StillImage" />
        <dc:title></dc:title>
      </cc:Work>
    </rdf:RDF>
  </metadata>
  <g
     transform="translate(44.178692,-366.38505)"
     id="layer1">
    <g
       transform="matrix(7.5757905,0,0,7.5757905,-3017.6503,-1839.2855)"
       id="g4239">
      <g
         transform="matrix(1.25,0,0,-1.25,423.87563,317.71835)"
         id="g3893">
        <path
           d="M 0,0 0.036,0.025 7.804,-3.865 0.027,-7.739 -0.007,-7.712 0,0 z"
           id="path3895"
           style="fill:#690020;fill-opacity:1;fill-rule:nonzero;stroke:none" />
      </g>
      <g
         transform="matrix(1.25,0,0,-1.25,-198.76824,360.54573)"
         id="g3897">
        <g
           clip-path="url(#clipPath3901)"
           id="g3899">
          <g
             transform="translate(556.3719,41.6746)"
             id="g3905">
            <path
               d="m 0,0 c 0.638,0 1.046,-0.154 1.227,-0.462 0.156,-0.247 0.234,-0.78 0.234,-1.603 l 0,-8.877 1.624,0 0,11.232 -2.141,0 L 0,0 z m 10.557,-4.67 0,0.514 -2.435,0 0,2.163 -1.631,0 0,-2.163 -1.433,0 c -0.132,-0.042 -0.2,-0.128 -0.2,-0.263 0,-0.128 0.075,-0.212 0.224,-0.251 l 1.4,0 0,-6.468 c 0,-1.314 0.366,-1.969 1.096,-1.969 l 2.086,0 0,0.206 -0.159,0 c -0.602,0 -0.987,0.121 -1.153,0.365 -0.165,0.245 -0.247,0.727 -0.247,1.447 l 0,6.419 2.452,0 z m -14.261,-2.238 -2.522,0 c 0.108,1.813 0.755,2.72 1.941,2.72 0.485,0 0.898,-0.204 1.244,-0.614 0.344,-0.408 0.516,-0.867 0.516,-1.379 0,-0.485 -0.392,-0.727 -1.179,-0.727 m 1.865,2.272 c -0.642,0.551 -1.442,0.827 -2.401,0.827 -2.557,0 -3.836,-1.523 -3.836,-4.571 0,-1.541 0.401,-2.75 1.203,-3.623 0.674,-0.734 1.564,-1.155 2.665,-1.273 l 0,0.877 c -0.539,0.266 -0.992,0.687 -1.352,1.277 -0.488,0.786 -0.732,1.664 -0.732,2.633 0,0.709 0.328,1.064 0.983,1.064 l 3.161,0 c 0.364,0 0.651,0.096 0.864,0.288 0.212,0.193 0.318,0.443 0.318,0.751 0,0.654 -0.291,1.237 -0.873,1.75 m -17.175,-2.959 c -1.039,0.67 -1.558,1.262 -1.558,1.777 0,0.452 0.149,0.819 0.446,1.102 0.297,0.283 0.694,0.426 1.194,0.426 1.019,0 1.621,-0.474 1.802,-1.42 l 0.162,0 0,1.491 c -0.557,0.296 -1.266,0.444 -2.125,0.444 -0.861,0 -1.56,-0.248 -2.1,-0.746 C -21.73,-5.018 -22,-5.66 -22,-6.449 c 0,-0.879 0.571,-1.681 1.711,-2.403 1.141,-0.725 1.725,-1.099 1.748,-1.126 0.486,-0.387 0.729,-0.839 0.729,-1.355 0,-0.931 -0.583,-1.397 -1.749,-1.397 -0.546,0 -1.202,0.247 -1.964,0.74 -0.087,0.053 -0.142,0.08 -0.166,0.08 -0.17,0 -0.255,-0.091 -0.255,-0.274 0,-0.208 0.242,-0.436 0.728,-0.682 0.557,-0.299 1.169,-0.448 1.835,-0.448 0.921,0 1.652,0.235 2.19,0.705 0.54,0.471 0.81,1.098 0.81,1.884 0,0.72 -0.256,1.327 -0.766,1.815 -0.206,0.206 -0.828,0.645 -1.865,1.315 m -13.317,-4.785 c -0.11,0.232 -0.165,0.669 -0.165,1.311 l 0,4.709 c 0,1.724 -0.717,2.585 -2.151,2.585 -1.364,0 -2.396,-0.909 -3.101,-2.726 l -0.202,0 0,6.791 -3.019,0 0,-0.263 0.055,0 c 0.599,0 0.989,-0.161 1.173,-0.483 0.132,-0.244 0.2,-0.786 0.2,-1.622 l 0,-8.864 1.591,0 0,2.439 c 0,0.954 0.247,1.809 0.74,2.564 0.495,0.753 1.046,1.132 1.657,1.132 0.682,0 1.115,-0.343 1.299,-1.027 0.134,-0.463 0.201,-1.483 0.201,-3.055 l 0,-2.458 c 0,-1.174 0.489,-1.76 1.467,-1.76 l 1.395,0 0,0.206 -0.054,0 c -0.556,0 -0.918,0.174 -1.086,0.521 m 20.181,4.785 c -1.038,0.67 -1.557,1.262 -1.557,1.777 0,0.452 0.148,0.819 0.445,1.102 0.298,0.283 0.696,0.426 1.194,0.426 1.018,0 1.621,-0.474 1.803,-1.42 l 0.163,0 0,1.491 c -0.558,0.296 -1.267,0.444 -2.127,0.444 -0.86,0 -1.561,-0.248 -2.099,-0.746 -0.538,-0.497 -0.809,-1.139 -0.809,-1.928 0,-0.879 0.571,-1.681 1.713,-2.403 1.141,-0.725 1.724,-1.099 1.748,-1.126 0.487,-0.387 0.727,-0.839 0.727,-1.355 0,-0.931 -0.581,-1.397 -1.747,-1.397 -0.546,0 -1.201,0.247 -1.966,0.74 -0.086,0.053 -0.14,0.08 -0.163,0.08 -0.171,0 -0.256,-0.091 -0.256,-0.274 0,-0.208 0.242,-0.436 0.726,-0.682 0.557,-0.299 1.171,-0.448 1.837,-0.448 0.92,0 1.65,0.235 2.19,0.705 0.54,0.471 0.808,1.098 0.808,1.884 0,0.72 -0.254,1.327 -0.765,1.815 -0.206,0.206 -0.827,0.645 -1.865,1.315 m -14.665,3.82 c -0.9,0 -1.642,-0.183 -2.227,-0.551 -0.583,-0.367 -0.911,-0.847 -0.985,-1.44 l 1.075,-1.083 c 0.606,0.051 0.91,0.432 0.91,1.145 l 0,0.077 c 0,0.426 0.122,0.779 0.366,1.056 0.244,0.278 0.536,0.417 0.878,0.417 0.5,0 0.847,-0.23 1.041,-0.688 0.196,-0.459 0.293,-1.18 0.293,-2.163 l 0,-1.281 c -3.332,-0.103 -5,-1.072 -5,-2.909 0,-0.578 0.235,-1.076 0.702,-1.493 0.325,-0.29 0.705,-0.476 1.137,-0.565 l 0,2.059 c -0.012,0.109 -0.02,0.221 -0.02,0.34 0,1.382 1.06,2.111 3.181,2.19 l 0,-2.278 1.624,0 0,3.805 c 0,1.198 -0.232,2.058 -0.693,2.58 -0.462,0.522 -1.224,0.782 -2.282,0.782"
               id="path3907"
               style="fill:#690020;fill-opacity:1;fill-rule:nonzero;stroke:none" />
          </g>
        </g>
      </g>
      <g
         transform="matrix(1.25,0,0,-1.25,434.87001,317.5241)"
         id="g3909">
        <path
           d="M 0,0 0.035,0.025 7.802,-3.864 0.025,-7.738 -0.009,-7.711 0,0 z"
           id="path3911"
           style="fill:#00053e;fill-opacity:1;fill-rule:nonzero;stroke:none" />
      </g>
      <g
         transform="matrix(1.25,0,0,-1.25,472.87926,294.72673)"
         id="g3921">
        <path
           d="m 0,0 -1.631,0 0,-1.959 -1.093,0 c -0.107,-0.016 -0.216,-0.026 -0.329,-0.027 -0.148,-0.038 -0.22,-0.128 -0.22,-0.27 0,-0.129 0.076,-0.212 0.224,-0.252 l 1.399,0 0,-6.467 c 0,-1.314 0.365,-1.97 1.097,-1.97 l 2.087,0 0,0.207 -0.159,0 c -0.604,0 -0.987,0.12 -1.154,0.366 -0.165,0.244 -0.247,0.726 -0.247,1.447 l 0,6.417 2.452,0 0,0.517 L 0,-1.991 0,0 z m -8.186,-2.094 0.11,0 c 0.545,0 0.913,-0.154 1.101,-0.463 0.188,-0.31 0.282,-0.858 0.282,-1.644 l 0,-4.358 1.624,0 0,6.741 -3.117,0 0,-0.276 z m 2.305,4.581 c -0.281,0 -0.518,-0.103 -0.713,-0.308 -0.196,-0.205 -0.292,-0.456 -0.292,-0.752 0,-0.296 0.096,-0.543 0.292,-0.741 0.195,-0.2 0.432,-0.3 0.713,-0.3 0.282,0 0.519,0.1 0.715,0.3 0.194,0.198 0.292,0.445 0.292,0.741 0,0.296 -0.098,0.547 -0.292,0.752 -0.196,0.205 -0.433,0.308 -0.715,0.308 m 27.936,-4.995 0,0.355 -2.442,0 0,2.153 -1.631,0 0,-2.153 -1.609,0 c -0.012,-0.031 -0.018,-0.064 -0.018,-0.103 0,-0.129 0.074,-0.212 0.224,-0.252 l 1.4,0 0,-6.467 c 0,-1.314 0.388,-1.88 1.095,-2.003 l 0.955,-0.207 1.001,0.497 -0.159,0 c -0.603,0 -0.856,0.07 -1.022,0.316 -0.164,0.244 -0.247,0.726 -0.247,1.447 l 0,6.417 2.453,0 z m -33.633,-2.924 c -1.038,0.669 -1.557,1.262 -1.557,1.777 0,0.451 0.149,0.818 0.446,1.103 0.297,0.282 0.694,0.424 1.192,0.424 1.02,0 1.622,-0.473 1.803,-1.419 l 0.163,0 0,1.491 c -0.557,0.296 -1.266,0.445 -2.125,0.445 -0.86,0 -1.56,-0.249 -2.1,-0.748 -0.538,-0.496 -0.807,-1.139 -0.807,-1.927 0,-0.879 0.569,-1.681 1.711,-2.404 1.141,-0.723 1.724,-1.098 1.749,-1.124 0.485,-0.388 0.727,-0.841 0.727,-1.357 0,-0.931 -0.582,-1.395 -1.747,-1.395 -0.547,0 -1.201,0.245 -1.966,0.739 -0.086,0.052 -0.14,0.078 -0.164,0.078 -0.171,0 -0.256,-0.089 -0.256,-0.271 0,-0.209 0.243,-0.436 0.727,-0.683 0.557,-0.299 1.17,-0.449 1.837,-0.449 0.921,0 1.65,0.235 2.189,0.705 0.54,0.471 0.81,1.099 0.81,1.885 0,0.721 -0.257,1.327 -0.766,1.816 -0.206,0.205 -0.828,0.644 -1.866,1.314 m 25.326,7.919 c -0.28,0 -0.519,-0.103 -0.714,-0.308 -0.195,-0.205 -0.292,-0.456 -0.292,-0.752 0,-0.296 0.097,-0.543 0.292,-0.741 0.195,-0.2 0.434,-0.3 0.714,-0.3 0.28,0 0.519,0.1 0.714,0.3 0.194,0.198 0.293,0.445 0.293,0.741 0,0.296 -0.099,0.547 -0.293,0.752 -0.195,0.205 -0.434,0.308 -0.714,0.308 m -2.304,-4.581 0.109,0 c 0.545,0 0.912,-0.154 1.1,-0.463 0.19,-0.31 0.283,-0.858 0.283,-1.644 l 0,-4.358 1.623,0 0,6.741 -3.115,0 0,-0.276 z m -3.706,-2.652 -2.52,0 c 0.107,1.814 0.754,2.722 1.94,2.722 0.484,0 0.898,-0.205 1.243,-0.614 0.344,-0.409 0.517,-0.869 0.517,-1.379 0,-0.486 -0.393,-0.729 -1.18,-0.729 m 1.866,2.274 c -0.643,0.55 -1.444,0.826 -2.4,0.826 -2.557,0 -3.838,-1.524 -3.838,-4.57 0,-1.543 0.402,-2.752 1.204,-3.625 0.551,-0.601 1.251,-0.99 2.091,-1.178 l 0,1.153 c -0.295,0.242 -0.556,0.54 -0.781,0.907 -0.485,0.787 -0.728,1.665 -0.728,2.632 0,0.71 0.326,1.065 0.981,1.065 l 3.162,0 c 0.365,0 0.651,0.096 0.863,0.289 0.212,0.192 0.32,0.441 0.32,0.749 0,0.655 -0.293,1.237 -0.874,1.752 m -34.931,-2.274 -2.522,0 c 0.109,1.814 0.756,2.722 1.942,2.722 0.484,0 0.897,-0.205 1.241,-0.614 0.346,-0.409 0.518,-0.869 0.518,-1.379 0,-0.486 -0.392,-0.729 -1.179,-0.729 m 1.864,2.274 c -0.642,0.55 -1.442,0.826 -2.4,0.826 -2.558,0 -3.836,-1.524 -3.836,-4.57 0,-1.543 0.4,-2.752 1.203,-3.625 0.57,-0.619 1.294,-1.014 2.169,-1.195 l 0,1.1 c -0.327,0.251 -0.613,0.577 -0.857,0.977 -0.488,0.787 -0.731,1.665 -0.731,2.632 0,0.71 0.327,1.065 0.982,1.065 l 3.162,0 c 0.364,0 0.652,0.096 0.864,0.289 0.212,0.192 0.318,0.441 0.318,0.749 0,0.655 -0.291,1.237 -0.874,1.752 m -20.629,0.378 0.109,0 c 0.546,0 0.914,-0.154 1.101,-0.463 0.189,-0.31 0.284,-0.858 0.284,-1.644 l 0,-4.358 1.623,0 0,6.741 -3.117,0 0,-0.276 z m -12.923,-4.513 c 0,-1.005 -0.22,-1.836 -0.657,-2.493 -0.435,-0.655 -0.955,-0.984 -1.557,-0.984 -1.144,0 -1.715,0.831 -1.715,2.491 l 0,5.775 -2.988,0 0,-0.276 c 0.953,-0.116 1.429,-0.888 1.429,-2.317 l 0,-2.82 c 0,-1.379 0.176,-2.376 0.529,-2.994 0.353,-0.617 0.967,-0.927 1.842,-0.927 0.608,0 1.126,0.167 1.551,0.503 0.183,0.154 0.505,0.521 0.967,1.102 0.462,0.578 1.192,0.868 2.189,0.868 l 0,6.861 -1.59,0 0,-4.789 z m 15.228,9.094 c -0.281,0 -0.519,-0.103 -0.713,-0.308 -0.195,-0.205 -0.294,-0.456 -0.294,-0.752 0,-0.296 0.099,-0.543 0.294,-0.741 0.194,-0.2 0.432,-0.3 0.713,-0.3 0.281,0 0.518,0.1 0.714,0.3 0.195,0.198 0.293,0.445 0.293,0.741 0,0.296 -0.098,0.547 -0.293,0.752 -0.196,0.205 -0.433,0.308 -0.714,0.308 m -3.669,-12.849 c -0.189,0.25 -0.283,0.697 -0.283,1.341 l 0,4.766 c 0,1.762 -0.674,2.644 -2.022,2.644 -1.288,0 -2.344,-0.878 -3.171,-2.632 l -0.2,0 0,2.425 -3.019,0 0,-0.271 c 0.953,-0.116 1.429,-0.818 1.429,-2.108 l 0,-4.362 1.59,0 0,2.385 c 0,0.9 0.39,1.814 1.172,2.742 0.428,0.501 0.85,0.753 1.264,0.753 0.536,0 0.897,-0.252 1.081,-0.753 0.17,-0.451 0.256,-1.269 0.256,-2.453 l 0,-3.554 c 0,-1.003 0.412,-1.506 1.238,-1.506 l 1.748,0 0.018,0.207 -0.055,0 c -0.51,0 -0.859,0.125 -1.046,0.376 m 14.239,8.732 c -0.037,0.012 -0.079,0.019 -0.128,0.019 -0.183,0 -0.298,-0.078 -0.348,-0.235 l -2.527,-7.391 -2.691,7.419 -2.757,0 0,-0.276 c 0.56,-0.039 0.978,-0.226 1.258,-0.561 0.17,-0.207 0.376,-0.64 0.619,-1.298 l 2.386,-6.407 c 0.191,-0.528 0.456,-0.792 0.795,-0.792 0.337,0 0.591,0.257 0.759,0.771 l 2.839,8.3 c 0.01,0.026 0.015,0.066 0.015,0.118 0,0.13 -0.074,0.241 -0.22,0.333 m 14.83,0.019 c -1.086,0 -1.872,-0.878 -2.36,-2.632 l -0.181,0 0,2.425 -1.624,0 0,-6.741 1.624,0 0,2.008 c 0,1.019 0.176,1.884 0.528,2.594 0.331,0.646 0.69,0.968 1.08,0.968 0.194,0 0.406,-0.087 0.631,-0.26 0.226,-0.173 0.404,-0.259 0.539,-0.259 l 0.932,0.949 c -0.17,0.631 -0.56,0.948 -1.169,0.948"
           id="path3923"
           style="fill:#00053e;fill-opacity:1;fill-rule:nonzero;stroke:none" />
      </g>
    </g>
  </g>
</svg>
